PathFileType	4	(X/Y/Z)	C:/Users/beibeiliu/ov580/test_trc/User2\sequence.29_training_dense_left.trc
DataRate	CameraRate	NumFrames	NumMarkers	Units	OrigDataRate	OrigDataStartFrame	OrigNumFrames
120	120	22	19	mm	120	274	365
Frame#	Time	ThumbCMC			ThumbMCP			ThumbIP			ThumbTip			IndexMCP			IndexPIP			IndexTip			MiddleMCP			MiddlePIP			MiddleTip			RingMCP			RingPIP			RingTip			PinkyMCP			PinkyPIP			PinkyTip			BackHand1			BackHand2			BackHand3	
		X0	Y0	Z0	X1	Y1	Z1	X2	Y2	Z2	X3	Y3	Z3	X4	Y4	Z4	X5	Y5	Z5	X6	Y6	Z6	X7	Y7	Z7	X8	Y8	Z8	X9	Y9	Z9	X10	Y10	Z10	X11	Y11	Z11	X12	Y12	Z12	X13	Y13	Z13	X14	Y14	Z14	X15	Y15	Z15	X16	Y16	Z16	X17	Y17	Z17	X18	Y18	Z18	
273	2.275	-238.389	-18.168	96.9675	-230.145	6.79109	71.1089	-204.703	16.3168	43.6552	-178.076	9.20766	42.7214	-218.391	-58.4347	31.6949	-210.383	-53.6923	-1.93292	-198.462	-22.5236	-14.2359	-189.767	-71.7332	33.1971	-174.511	-69.03	-0.177031	-168.658	-34.0207	-17.7213	-163.251	-64.9028	38.9696	-155.977	-51.386	13.168	-158.415	-11.305	16.7546	-147.553	-48.3953	59.0255	-133.105	-27.705	32.0847	-142.376	-0.886572	26.4593	-181.495	-63.702	97.0468	-192.115	-63.2021	127.974	-217.453	-58.5788	100.904	
274	2.28333	-238.211	-22.0683	99.3581	-236.108	3.84023	69.4608	-212.189	15.7377	40.0611	-181.357	7.66723	39.5673	-213.52	-62.1056	31.5293	-207.422	-57.5976	-0.323593	-195.764	-24.921	-12.3522	-189.137	-73.8956	32.4136	-177.636	-65.8672	-3.13278	-168.866	-31.2777	-14.9064	-161.944	-63.0095	39.4669	-152.155	-46.171	14.8971	-158.495	-10.0662	21.0986	-144.119	-49.8163	58.2038	-133.505	-30.0904	33.7439	-140.963	0.219818	25.8667	-183.768	-64.0069	94.5035	-192.156	-65.2628	124.049	-220.166	-62.1769	103.135	
275	2.29167	-242.559	-25.5735	98.3738	-237.999	-1.58426	69.1189	-214.534	9.29977	40.0265	-181.192	-0.23013	40.2395	-217.392	-65.5673	31.6238	-208.399	-57.2475	-2.87094	-197.001	-26.591	-11.5382	-186.622	-74.0605	30.1957	-175.953	-61.0156	-3.32903	-165.583	-24.0075	-6.06078	-166.033	-61.8388	39.7887	-153.197	-41.0061	15.5878	-163.34	-4.72692	26.3636	-149.292	-51.6698	58.5111	-138.339	-33.0093	32.7923	-143.939	-1.3767	26.9358	-180.413	-66.7201	95.8545	-189.692	-70.169	125.797	-220.933	-64.6577	99.9272	
276	2.3	-239.278	-25.4735	101.257	-236.917	-1.8349	68.6548	-214.997	8.78424	43.7601	-184.498	1.43132	40.8186	-215.749	-64.5136	28.006	-206.546	-59.18	0.66865	-196.219	-26.6887	-8.62269	-185.891	-70.8199	28.6014	-173.757	-54.2944	-1.56346	-170.43	-13.1747	-0.845356	-162.185	-56.9985	38.8473	-152.706	-35.9573	16.4296	-164.03	-2.12686	25.3776	-147.392	-49.6989	54.8404	-137.062	-32.152	32.222	-144.079	-0.115765	24.8453	-182.333	-66.7729	94.9704	-190.231	-67.0851	125.04	-221.397	-64.8811	101.156	
277	2.30833	-240.204	-22.5322	101.367	-233.993	-1.68553	69.5856	-212.534	10.235	42.5581	-183.482	4.76987	39.9904	-211.631	-61.9904	27.5551	-202.921	-52.167	-1.7789	-195.462	-17.5222	-7.39893	-182.999	-64.1515	29.6337	-170.936	-45.8947	0.542961	-173.297	-2.63378	9.46526	-163.617	-52.9875	35.7891	-151.59	-30.4914	16.2994	-167.569	3.58868	27.0644	-147.723	-46.2054	56.3297	-142.844	-27.7609	28.8796	-144.143	2.73	22.2926	-177.359	-62.439	95.5466	-189.005	-63.3968	126.478	-215.903	-61.2947	98.8177	
278	2.31667	-239.937	-24.1982	101.377	-236.141	-1.53446	66.2955	-212.502	8.06381	39.2196	-179.821	1.43661	38.1957	-209.902	-62.0198	27.0884	-197.69	-49.1575	-0.444341	-192.325	-15.2254	-4.27096	-183.434	-59.9489	26.0797	-170.2	-34.1844	1.3865	-175.341	2.32782	17.7947	-160.066	-50.9146	37.1251	-152.416	-25.081	16.6915	-164.095	5.93244	27.9529	-144.699	-46.2711	57.863	-143.035	-26.6565	27.7922	-147.962	0.0652342	22.9496	-175.173	-62.2139	95.4141	-188.23	-65.535	127.256	-216.842	-62.3316	98.143	
279	2.325	-238.956	-24.5914	98.9402	-231.803	-3.94524	69.1531	-210.307	8.21676	37.3852	-178.571	0.566126	40.6598	-204.996	-60.9068	27.2212	-195.967	-47.6541	-0.0360321	-189.762	-10.8123	0.841857	-178.368	-54.5786	24.1545	-169.313	-25.987	4.27544	-176.138	8.13865	23.5328	-158.558	-48.6434	34.9688	-152.379	-21.2172	16.5764	-166.159	8.17278	30.6384	-144.629	-44.74	56.4658	-137.59	-29.8909	30.5981	-141.61	0.9773	22.868	-178.602	-62.7799	91.4712	-183.439	-65.9238	126.105	-215.4	-64.0975	102.105	
280	2.33333	-240.14	-27.3085	101.037	-233.708	-7.14382	66.9988	-207.286	-0.732511	42.9661	-179.297	-3.73717	42.3454	-204.53	-61.6397	30.8952	-189.135	-50.3105	4.41312	-186.583	-15.3713	3.27238	-181.9	-55.8953	25.6784	-168.928	-29.8244	6.68407	-178.302	6.95063	25.9228	-160.182	-52.3523	39.3761	-154.694	-22.9051	17.9657	-162.765	7.28795	35.5995	-145.595	-48.7252	58.4886	-137.054	-30.7486	31.4364	-141.032	-2.08359	23.1882	-177.904	-66.802	94.9562	-185.078	-68.4519	130.716	-214.516	-65.684	103.558	
281	2.34167	-236.276	-27.6959	100.506	-233.742	-7.81329	65.4411	-209.647	0.961896	43.4976	-180.654	-6.77231	47.4284	-203.718	-60.6802	32.2927	-190.33	-47.4334	1.98539	-187.252	-12.4285	5.77382	-180.014	-55.941	24.8444	-168.763	-25.2019	7.87254	-173.189	5.38784	29.0787	-160.407	-51.1772	36.1439	-150.955	-25.9083	20.1687	-166.167	6.08132	35.8763	-143.72	-48.4124	62.162	-139.823	-30.3903	31.2774	-140.323	0.0131937	23.4136	-178.443	-64.9881	94.9223	-186.684	-67.4441	129.424	-214.853	-64.0532	102.485	
282	2.35	-239.656	-26.1221	97.0567	-235.194	-6.03244	69.8417	-213.543	4.41302	41.7405	-178.689	-4.40919	44.1217	-204.766	-60.911	28.5457	-192.662	-48.3124	2.78417	-186.861	-10.76	6.44025	-176.581	-54.2664	26.1013	-169.549	-25.6844	6.03323	-172.626	5.86699	26.9499	-161.176	-50.8418	35.5473	-153.539	-24.3205	18.8717	-160.769	8.2605	38.3347	-146.268	-47.6301	57.4446	-135.573	-28.734	31.462	-139.56	-0.470057	22.5937	-179.879	-66.8027	94.4658	-184.799	-66.1514	129.086	-218.618	-64.503	100.275	
283	2.35833	-238.099	-26.9405	100.331	-236.06	-7.37026	67.412	-215.442	3.77343	42.2208	-184.878	-0.867185	41.249	-205.974	-59.1962	31.6191	-191.889	-49.8163	3.74285	-184.188	-12.167	5.60259	-178.991	-54.0729	25.6449	-165.859	-27.2669	8.14932	-170.5	6.40072	28.8277	-157.265	-51.3105	39.0625	-148.637	-24.4613	20.8473	-159.293	6.33291	37.2842	-142.781	-46.5966	59.4352	-131.31	-29.295	36.2763	-134.575	-2.54939	23.3896	-176.268	-66.7697	97.7831	-191.017	-66.5363	127.623	-218.788	-64.0758	99.1141	
284	2.36667	-237.88	-26.4712	101.375	-242.596	-6.70825	70.9446	-225.114	5.70163	41.3833	-193.186	0.714786	42.4331	-203.451	-57.6972	33.7361	-186.033	-44.9571	2.52808	-183.75	-10.5693	4.08719	-177.501	-54.0491	28.8683	-164.78	-27.7802	7.26114	-171.575	6.82142	29.0231	-157.889	-49.5881	38.5246	-147.778	-26.1126	20.2743	-159.243	5.90324	35.1474	-143.346	-45.6156	58.4526	-130.796	-29.541	37.8507	-131.842	4.61231	27.7047	-178.461	-63.4458	94.4566	-186.096	-67.3782	131.088	-218.798	-61.4978	99.5182	
285	2.375	-238.287	-27.2852	100.211	-249.143	-9.59812	69.5677	-232.027	3.32772	42.4556	-201.838	4.63781	33.5507	-198.505	-56.2738	29.9236	-187.389	-42.4233	0.661421	-181.393	-9.98557	3.89328	-172.072	-52.7447	27.1964	-162.653	-23.0366	8.40329	-171.371	7.17538	31.5253	-155.366	-49.8141	42.5678	-147.144	-25.3912	20.9695	-155.52	6.08078	39.7066	-141.42	-44.1972	61.2736	-125.863	-24.5846	38.8552	-131.381	3.99101	32.2599	-177.187	-63.284	97.5226	-185.294	-64.0976	126.465	-216.246	-60.0074	102.116	
286	2.38333	-238.248	-28.6048	98.1084	-252.239	-13.2196	72.6147	-238.534	-0.975833	38.6891	-208.682	0.343706	33.9819	-197.205	-54.3601	27.6066	-183.266	-40.536	3.06236	-177.772	-8.13441	8.92554	-172.414	-52.4704	30.8593	-159.038	-25.0979	9.97636	-171.034	5.53846	37.3551	-155.698	-49.0649	37.1822	-143.357	-22.2257	23.0514	-157.88	4.78412	45.5291	-137.821	-43.8228	64.1221	-127.174	-25.0754	39.8435	-134.374	7.92404	35.8778	-174.888	-60.8133	94.4223	-190.08	-63.9219	125.572	-217.622	-58.4444	100.572	
287	2.39167	-240.306	-27.2533	100.273	-250.7	-15.9166	70.0309	-244.416	-2.36349	36.307	-212.261	0.8882	29.5179	-195.441	-49.7497	25.5114	-178.171	-35.1509	4.57757	-180.386	2.23144	16.2141	-171.066	-49.1319	29.1853	-158.269	-16.2366	10.4456	-171.302	6.37609	38.9787	-152.961	-45.3191	39.4613	-143.346	-20.7137	23.0275	-159.665	4.40764	48.2055	-137.398	-41.8119	64.2392	-126.116	-20.0615	40.7872	-137.48	7.81161	41.8525	-174.062	-61.1161	93.0836	-188.428	-63.267	127.998	-216.9	-56.315	97.8689	
288	2.4	-237.476	-28.1645	100.144	-255.752	-17.0253	71.5058	-245.994	-5.43936	37.3515	-220.24	0.870444	29.0512	-190.445	-46.5507	28.0474	-175.63	-28.3732	5.04569	-177.89	4.47692	22.0883	-164.972	-45.5915	26.9114	-152.896	-15.0018	14.9091	-171.261	8.3889	45.3062	-146.644	-44.721	41.8297	-141.9	-17.862	26.46	-158.331	2.52229	50.8282	-134.347	-42.3998	64.1933	-124.289	-15.545	43.5229	-139.725	12.3729	50.6171	-174.054	-62.3116	96.671	-187.881	-63.1883	125.807	-211.909	-57.0425	94.3167	
289	2.40833	-238.777	-27.8687	101.485	-255.18	-17.547	72.6876	-246.777	-5.79918	36.9531	-222.845	1.97849	23.1063	-192.006	-40.5784	28.2675	-171.512	-19.1706	9.64069	-176.839	8.02794	30.4859	-165.909	-41.6677	30.0649	-150.744	-11.9491	15.5035	-169.828	10.5132	50.6716	-147.047	-38.7878	38.7342	-140.756	-9.98682	30.0511	-156.899	4.52204	61.1136	-133.721	-38.7953	65.2876	-123.587	-14.9773	45.9551	-142.885	13.1347	59.3111	-172.496	-58.7299	93.0904	-187.245	-65.1523	124.751	-210.419	-57.2879	96.8225	
290	2.41667	-238.263	-24.8602	100.168	-252.398	-16.3727	69.1939	-246.478	-4.3782	34.7727	-218.889	2.8247	23.4044	-189.674	-35.7666	28.0973	-169.318	-11.5992	11.0769	-176.971	12.9054	32.4423	-161.602	-35.2612	26.8934	-149.379	-3.33087	19.9328	-170.086	15.1801	50.3935	-144.344	-32.8607	40.0763	-137.489	-3.5585	34.5707	-158.053	7.31584	64.5877	-131.982	-35.8531	67.4173	-122.028	-3.8089	51.3044	-140.979	13.9932	68.0881	-175.741	-57.7885	95.7902	-186.001	-62.5711	124.293	-207.501	-52.4792	93.6903	
291	2.425	-237.211	-26.9249	98.4252	-246.378	-17.2843	71.518	-244.637	-5.71668	37.7323	-224.87	3.74485	22.5528	-186.398	-32.6507	23.1411	-167.35	-8.55923	13.6214	-175.654	14.9211	38.4575	-162.919	-34.4196	29.0603	-148.017	-1.81599	22.1657	-168.26	15.8791	53.4077	-141.623	-32.2913	44.6138	-133.482	-3.4882	39.3239	-157.356	7.46686	68.6379	-126.453	-32.8858	64.4902	-124.211	-3.80821	54.4069	-142.408	13.2686	74.1393	-167.903	-57.2814	96.4631	-182.433	-63.5252	127.113	-209.647	-54.8889	96.208	
292	2.43333	-235.938	-24.962	98.573	-245.156	-16.0024	72.8665	-247.306	-5.25385	40.7321	-223.804	2.18909	21.0341	-182.452	-31.2359	27.956	-168.73	-8.00522	14.1545	-175.676	16.3509	40.5344	-158.777	-31.7122	32.2871	-151.051	4.21916	24.5467	-166.333	17.6271	55.893	-142.132	-29.6023	43.6608	-136.409	3.53823	42.7758	-154.551	8.24777	69.973	-128.143	-32.2907	69.7077	-123.64	-0.975431	57.0073	-146.035	11.3464	76.4246	-168.369	-56.8607	99.4048	-185.653	-59.0056	123.76	-209.105	-53.3114	97.4838	
293	2.44167	-235.435	-30.5657	105.784	-250.237	-21.8028	77.4854	-245.79	-12.0678	39.0287	-230.723	-2.58259	22.8529	-186.444	-36.3266	31.6902	-169.045	-9.83799	16.6792	-177.542	14.1281	39.5957	-161.546	-35.3203	29.8297	-150.087	-2.0282	28.2016	-166.192	10.4363	62.7057	-144.275	-35.0575	48.5228	-137.571	-4.50097	42.2222	-156.157	4.57433	73.6548	-133.438	-34.8155	68.7027	-130.122	-3.69505	59.0792	-151.37	5.09104	81.6248	-167.111	-62.4697	98.0633	-184.056	-66.9549	125.591	-209.222	-56.9791	97.689	
294	2.45	-237.159	-26.8094	101.484	-246.476	-20.283	74.3569	-247.189	-10.4757	43.0308	-232.031	-1.79953	21.267	-187.835	-35.9682	31.2667	-168.124	-11.1778	16.4897	-178.591	14.0166	43.4648	-159.18	-34.7524	33.7902	-148.964	-2.86675	28.222	-171.133	10.0856	65.1697	-141.74	-32.0901	50.0046	-136.819	0.624951	48.803	-157.559	3.79757	77.1143	-127.903	-31.988	66.8545	-129.698	1.11745	64.6455	-153.207	2.46308	88.9332	-169.664	-60.3442	98.0216	-184.579	-65.3286	132.719	-210.043	-55.2651	102.406	
